<?xml version="1.0" encoding="UTF-8"?>
<!DOCTYPE svg PUBLIC "-//W3C//DTD SVG 1.1//EN" "http://www.w3.org/Graphics/SVG/1.1/DTD/svg11.dtd">
<svg xmlns="http://www.w3.org/2000/svg" version="1.1" width="504px" height="171px" style="shape-rendering:geometricPrecision; text-rendering:geometricPrecision; image-rendering:optimizeQuality; fill-rule:evenodd; clip-rule:evenodd" xmlns:xlink="http://www.w3.org/1999/xlink">
<g><path style="opacity:1" fill="#242424" d="M -0.5,-0.5 C 2.5,-0.5 5.5,-0.5 8.5,-0.5C 8.5,56.5 8.5,113.5 8.5,170.5C 5.5,170.5 2.5,170.5 -0.5,170.5C -0.5,113.5 -0.5,56.5 -0.5,-0.5 Z"/></g>
<g><path style="opacity:0" fill="#fefffe" d="M 8.5,-0.5 C 9.83333,-0.5 11.1667,-0.5 12.5,-0.5C 12.5,56.5 12.5,113.5 12.5,170.5C 11.1667,170.5 9.83333,170.5 8.5,170.5C 8.5,113.5 8.5,56.5 8.5,-0.5 Z"/></g>
<g><path style="opacity:1" fill="#242424" d="M 12.5,-0.5 C 14.1667,-0.5 15.8333,-0.5 17.5,-0.5C 17.5,56.5 17.5,113.5 17.5,170.5C 15.8333,170.5 14.1667,170.5 12.5,170.5C 12.5,113.5 12.5,56.5 12.5,-0.5 Z"/></g>
<g><path style="opacity:0" fill="#fefffe" d="M 17.5,-0.5 C 23.5,-0.5 29.5,-0.5 35.5,-0.5C 35.5,56.5 35.5,113.5 35.5,170.5C 29.5,170.5 23.5,170.5 17.5,170.5C 17.5,113.5 17.5,56.5 17.5,-0.5 Z"/></g>
<g><path style="opacity:1" fill="#242424" d="M 35.5,-0.5 C 36.8333,-0.5 38.1667,-0.5 39.5,-0.5C 39.5,56.5 39.5,113.5 39.5,170.5C 38.1667,170.5 36.8333,170.5 35.5,170.5C 35.5,113.5 35.5,56.5 35.5,-0.5 Z"/></g>
<g><path style="opacity:0" fill="#fefffe" d="M 39.5,-0.5 C 42.5,-0.5 45.5,-0.5 48.5,-0.5C 48.5,56.5 48.5,113.5 48.5,170.5C 45.5,170.5 42.5,170.5 39.5,170.5C 39.5,113.5 39.5,56.5 39.5,-0.5 Z"/></g>
<g><path style="opacity:1" fill="#242424" d="M 48.5,-0.5 C 50.1667,-0.5 51.8333,-0.5 53.5,-0.5C 53.5,56.5 53.5,113.5 53.5,170.5C 51.8333,170.5 50.1667,170.5 48.5,170.5C 48.5,113.5 48.5,56.5 48.5,-0.5 Z"/></g>
<g><path style="opacity:0" fill="#fefffe" d="M 53.5,-0.5 C 57.8333,-0.5 62.1667,-0.5 66.5,-0.5C 66.5,56.5 66.5,113.5 66.5,170.5C 62.1667,170.5 57.8333,170.5 53.5,170.5C 53.5,113.5 53.5,56.5 53.5,-0.5 Z"/></g>
<g><path style="opacity:1" fill="#242424" d="M 66.5,-0.5 C 68.1667,-0.5 69.8333,-0.5 71.5,-0.5C 71.5,56.5 71.5,113.5 71.5,170.5C 69.8333,170.5 68.1667,170.5 66.5,170.5C 66.5,113.5 66.5,56.5 66.5,-0.5 Z"/></g>
<g><path style="opacity:0" fill="#fefffe" d="M 71.5,-0.5 C 72.8333,-0.5 74.1667,-0.5 75.5,-0.5C 75.5,56.5 75.5,113.5 75.5,170.5C 74.1667,170.5 72.8333,170.5 71.5,170.5C 71.5,113.5 71.5,56.5 71.5,-0.5 Z"/></g>
<g><path style="opacity:1" fill="#242424" d="M 75.5,-0.5 C 78.5,-0.5 81.5,-0.5 84.5,-0.5C 84.5,56.5 84.5,113.5 84.5,170.5C 81.5,170.5 78.5,170.5 75.5,170.5C 75.5,113.5 75.5,56.5 75.5,-0.5 Z"/></g>
<g><path style="opacity:0" fill="#fefffe" d="M 84.5,-0.5 C 89.1667,-0.5 93.8333,-0.5 98.5,-0.5C 98.5,56.5 98.5,113.5 98.5,170.5C 93.8333,170.5 89.1667,170.5 84.5,170.5C 84.5,113.5 84.5,56.5 84.5,-0.5 Z"/></g>
<g><path style="opacity:1" fill="#242424" d="M 98.5,-0.5 C 99.8333,-0.5 101.167,-0.5 102.5,-0.5C 102.5,56.5 102.5,113.5 102.5,170.5C 101.167,170.5 99.8333,170.5 98.5,170.5C 98.5,113.5 98.5,56.5 98.5,-0.5 Z"/></g>
<g><path style="opacity:0" fill="#fefffe" d="M 102.5,-0.5 C 104.167,-0.5 105.833,-0.5 107.5,-0.5C 107.5,56.5 107.5,113.5 107.5,170.5C 105.833,170.5 104.167,170.5 102.5,170.5C 102.5,113.5 102.5,56.5 102.5,-0.5 Z"/></g>
<g><path style="opacity:1" fill="#242424" d="M 107.5,-0.5 C 111.833,-0.5 116.167,-0.5 120.5,-0.5C 120.5,56.5 120.5,113.5 120.5,170.5C 116.167,170.5 111.833,170.5 107.5,170.5C 107.5,113.5 107.5,56.5 107.5,-0.5 Z"/></g>
<g><path style="opacity:0" fill="#fefffe" d="M 120.5,-0.5 C 122.167,-0.5 123.833,-0.5 125.5,-0.5C 125.5,56.5 125.5,113.5 125.5,170.5C 123.833,170.5 122.167,170.5 120.5,170.5C 120.5,113.5 120.5,56.5 120.5,-0.5 Z"/></g>
<g><path style="opacity:1" fill="#242424" d="M 125.5,-0.5 C 128.5,-0.5 131.5,-0.5 134.5,-0.5C 134.5,56.5 134.5,113.5 134.5,170.5C 131.5,170.5 128.5,170.5 125.5,170.5C 125.5,113.5 125.5,56.5 125.5,-0.5 Z"/></g>
<g><path style="opacity:0" fill="#fefffe" d="M 134.5,-0.5 C 138.833,-0.5 143.167,-0.5 147.5,-0.5C 147.5,56.5 147.5,113.5 147.5,170.5C 143.167,170.5 138.833,170.5 134.5,170.5C 134.5,113.5 134.5,56.5 134.5,-0.5 Z"/></g>
<g><path style="opacity:1" fill="#242424" d="M 147.5,-0.5 C 149.167,-0.5 150.833,-0.5 152.5,-0.5C 152.5,56.5 152.5,113.5 152.5,170.5C 150.833,170.5 149.167,170.5 147.5,170.5C 147.5,113.5 147.5,56.5 147.5,-0.5 Z"/></g>
<g><path style="opacity:0" fill="#fefffe" d="M 152.5,-0.5 C 156.833,-0.5 161.167,-0.5 165.5,-0.5C 165.5,56.5 165.5,113.5 165.5,170.5C 161.167,170.5 156.833,170.5 152.5,170.5C 152.5,113.5 152.5,56.5 152.5,-0.5 Z"/></g>
<g><path style="opacity:1" fill="#242424" d="M 165.5,-0.5 C 167.167,-0.5 168.833,-0.5 170.5,-0.5C 170.5,56.5 170.5,113.5 170.5,170.5C 168.833,170.5 167.167,170.5 165.5,170.5C 165.5,113.5 165.5,56.5 165.5,-0.5 Z"/></g>
<g><path style="opacity:0" fill="#fefffe" d="M 170.5,-0.5 C 174.833,-0.5 179.167,-0.5 183.5,-0.5C 183.5,56.5 183.5,113.5 183.5,170.5C 179.167,170.5 174.833,170.5 170.5,170.5C 170.5,113.5 170.5,56.5 170.5,-0.5 Z"/></g>
<g><path style="opacity:1" fill="#242424" d="M 183.5,-0.5 C 186.5,-0.5 189.5,-0.5 192.5,-0.5C 192.5,56.5 192.5,113.5 192.5,170.5C 189.5,170.5 186.5,170.5 183.5,170.5C 183.5,113.5 183.5,56.5 183.5,-0.5 Z"/></g>
<g><path style="opacity:0" fill="#fefffe" d="M 192.5,-0.5 C 194.167,-0.5 195.833,-0.5 197.5,-0.5C 197.5,56.5 197.5,113.5 197.5,170.5C 195.833,170.5 194.167,170.5 192.5,170.5C 192.5,113.5 192.5,56.5 192.5,-0.5 Z"/></g>
<g><path style="opacity:1" fill="#242424" d="M 197.5,-0.5 C 198.833,-0.5 200.167,-0.5 201.5,-0.5C 201.5,56.5 201.5,113.5 201.5,170.5C 200.167,170.5 198.833,170.5 197.5,170.5C 197.5,113.5 197.5,56.5 197.5,-0.5 Z"/></g>
<g><path style="opacity:0" fill="#fefffe" d="M 201.5,-0.5 C 206.167,-0.5 210.833,-0.5 215.5,-0.5C 215.5,56.5 215.5,113.5 215.5,170.5C 210.833,170.5 206.167,170.5 201.5,170.5C 201.5,113.5 201.5,56.5 201.5,-0.5 Z"/></g>
<g><path style="opacity:1" fill="#242424" d="M 215.5,-0.5 C 219.833,-0.5 224.167,-0.5 228.5,-0.5C 228.5,56.5 228.5,113.5 228.5,170.5C 224.167,170.5 219.833,170.5 215.5,170.5C 215.5,113.5 215.5,56.5 215.5,-0.5 Z"/></g>
<g><path style="opacity:0" fill="#fefffe" d="M 228.5,-0.5 C 230.167,-0.5 231.833,-0.5 233.5,-0.5C 233.5,56.5 233.5,113.5 233.5,170.5C 231.833,170.5 230.167,170.5 228.5,170.5C 228.5,113.5 228.5,56.5 228.5,-0.5 Z"/></g>
<g><path style="opacity:1" fill="#242424" d="M 233.5,-0.5 C 236.5,-0.5 239.5,-0.5 242.5,-0.5C 242.5,56.5 242.5,113.5 242.5,170.5C 239.5,170.5 236.5,170.5 233.5,170.5C 233.5,113.5 233.5,56.5 233.5,-0.5 Z"/></g>
<g><path style="opacity:0" fill="#fefffe" d="M 242.5,-0.5 C 243.833,-0.5 245.167,-0.5 246.5,-0.5C 246.5,56.5 246.5,113.5 246.5,170.5C 245.167,170.5 243.833,170.5 242.5,170.5C 242.5,113.5 242.5,56.5 242.5,-0.5 Z"/></g>
<g><path style="opacity:1" fill="#242424" d="M 246.5,-0.5 C 248.167,-0.5 249.833,-0.5 251.5,-0.5C 251.5,56.5 251.5,113.5 251.5,170.5C 249.833,170.5 248.167,170.5 246.5,170.5C 246.5,113.5 246.5,56.5 246.5,-0.5 Z"/></g>
<g><path style="opacity:0" fill="#fefffe" d="M 251.5,-0.5 C 252.833,-0.5 254.167,-0.5 255.5,-0.5C 255.5,56.5 255.5,113.5 255.5,170.5C 254.167,170.5 252.833,170.5 251.5,170.5C 251.5,113.5 251.5,56.5 251.5,-0.5 Z"/></g>
<g><path style="opacity:1" fill="#242424" d="M 255.5,-0.5 C 258.5,-0.5 261.5,-0.5 264.5,-0.5C 264.5,56.5 264.5,113.5 264.5,170.5C 261.5,170.5 258.5,170.5 255.5,170.5C 255.5,113.5 255.5,56.5 255.5,-0.5 Z"/></g>
<g><path style="opacity:0" fill="#fefffe" d="M 264.5,-0.5 C 269.167,-0.5 273.833,-0.5 278.5,-0.5C 278.5,56.5 278.5,113.5 278.5,170.5C 273.833,170.5 269.167,170.5 264.5,170.5C 264.5,113.5 264.5,56.5 264.5,-0.5 Z"/></g>
<g><path style="opacity:1" fill="#242424" d="M 278.5,-0.5 C 279.833,-0.5 281.167,-0.5 282.5,-0.5C 282.5,56.5 282.5,113.5 282.5,170.5C 281.167,170.5 279.833,170.5 278.5,170.5C 278.5,113.5 278.5,56.5 278.5,-0.5 Z"/></g>
<g><path style="opacity:0" fill="#fefffe" d="M 282.5,-0.5 C 287.167,-0.5 291.833,-0.5 296.5,-0.5C 296.5,56.5 296.5,113.5 296.5,170.5C 291.833,170.5 287.167,170.5 282.5,170.5C 282.5,113.5 282.5,56.5 282.5,-0.5 Z"/></g>
<g><path style="opacity:1" fill="#242424" d="M 296.5,-0.5 C 297.833,-0.5 299.167,-0.5 300.5,-0.5C 300.5,56.5 300.5,113.5 300.5,170.5C 299.167,170.5 297.833,170.5 296.5,170.5C 296.5,113.5 296.5,56.5 296.5,-0.5 Z"/></g>
<g><path style="opacity:0" fill="#fefffe" d="M 300.5,-0.5 C 305.167,-0.5 309.833,-0.5 314.5,-0.5C 314.5,56.5 314.5,113.5 314.5,170.5C 309.833,170.5 305.167,170.5 300.5,170.5C 300.5,113.5 300.5,56.5 300.5,-0.5 Z"/></g>
<g><path style="opacity:1" fill="#242424" d="M 314.5,-0.5 C 317.5,-0.5 320.5,-0.5 323.5,-0.5C 323.5,56.5 323.5,113.5 323.5,170.5C 320.5,170.5 317.5,170.5 314.5,170.5C 314.5,113.5 314.5,56.5 314.5,-0.5 Z"/></g>
<g><path style="opacity:0" fill="#fefffe" d="M 323.5,-0.5 C 324.833,-0.5 326.167,-0.5 327.5,-0.5C 327.5,56.5 327.5,113.5 327.5,170.5C 326.167,170.5 324.833,170.5 323.5,170.5C 323.5,113.5 323.5,56.5 323.5,-0.5 Z"/></g>
<g><path style="opacity:1" fill="#242424" d="M 327.5,-0.5 C 329.167,-0.5 330.833,-0.5 332.5,-0.5C 332.5,56.5 332.5,113.5 332.5,170.5C 330.833,170.5 329.167,170.5 327.5,170.5C 327.5,113.5 327.5,56.5 327.5,-0.5 Z"/></g>
<g><path style="opacity:0" fill="#fefffe" d="M 332.5,-0.5 C 336.833,-0.5 341.167,-0.5 345.5,-0.5C 345.5,56.5 345.5,113.5 345.5,170.5C 341.167,170.5 336.833,170.5 332.5,170.5C 332.5,113.5 332.5,56.5 332.5,-0.5 Z"/></g>
<g><path style="opacity:1" fill="#242424" d="M 345.5,-0.5 C 347.167,-0.5 348.833,-0.5 350.5,-0.5C 350.5,56.5 350.5,113.5 350.5,170.5C 348.833,170.5 347.167,170.5 345.5,170.5C 345.5,113.5 345.5,56.5 345.5,-0.5 Z"/></g>
<g><path style="opacity:0" fill="#fefffe" d="M 350.5,-0.5 C 356.5,-0.5 362.5,-0.5 368.5,-0.5C 368.5,56.5 368.5,113.5 368.5,170.5C 362.5,170.5 356.5,170.5 350.5,170.5C 350.5,113.5 350.5,56.5 350.5,-0.5 Z"/></g>
<g><path style="opacity:1" fill="#242424" d="M 368.5,-0.5 C 371.5,-0.5 374.5,-0.5 377.5,-0.5C 377.5,56.5 377.5,113.5 377.5,170.5C 374.5,170.5 371.5,170.5 368.5,170.5C 368.5,113.5 368.5,56.5 368.5,-0.5 Z"/></g>
<g><path style="opacity:0" fill="#fefffe" d="M 377.5,-0.5 C 380.5,-0.5 383.5,-0.5 386.5,-0.5C 386.5,56.5 386.5,113.5 386.5,170.5C 383.5,170.5 380.5,170.5 377.5,170.5C 377.5,113.5 377.5,56.5 377.5,-0.5 Z"/></g>
<g><path style="opacity:1" fill="#242424" d="M 386.5,-0.5 C 387.833,-0.5 389.167,-0.5 390.5,-0.5C 390.5,56.5 390.5,113.5 390.5,170.5C 389.167,170.5 387.833,170.5 386.5,170.5C 386.5,113.5 386.5,56.5 386.5,-0.5 Z"/></g>
<g><path style="opacity:0" fill="#fefffe" d="M 390.5,-0.5 C 392.167,-0.5 393.833,-0.5 395.5,-0.5C 395.5,56.5 395.5,113.5 395.5,170.5C 393.833,170.5 392.167,170.5 390.5,170.5C 390.5,113.5 390.5,56.5 390.5,-0.5 Z"/></g>
<g><path style="opacity:1" fill="#242424" d="M 395.5,-0.5 C 399.833,-0.5 404.167,-0.5 408.5,-0.5C 408.5,56.5 408.5,113.5 408.5,170.5C 404.167,170.5 399.833,170.5 395.5,170.5C 395.5,113.5 395.5,56.5 395.5,-0.5 Z"/></g>
<g><path style="opacity:0" fill="#fefffe" d="M 408.5,-0.5 C 410.167,-0.5 411.833,-0.5 413.5,-0.5C 413.5,56.5 413.5,113.5 413.5,170.5C 411.833,170.5 410.167,170.5 408.5,170.5C 408.5,113.5 408.5,56.5 408.5,-0.5 Z"/></g>
<g><path style="opacity:1" fill="#242424" d="M 413.5,-0.5 C 414.833,-0.5 416.167,-0.5 417.5,-0.5C 417.5,56.5 417.5,113.5 417.5,170.5C 416.167,170.5 414.833,170.5 413.5,170.5C 413.5,113.5 413.5,56.5 413.5,-0.5 Z"/></g>
<g><path style="opacity:0" fill="#fefffe" d="M 417.5,-0.5 C 419.167,-0.5 420.833,-0.5 422.5,-0.5C 422.5,56.5 422.5,113.5 422.5,170.5C 420.833,170.5 419.167,170.5 417.5,170.5C 417.5,113.5 417.5,56.5 417.5,-0.5 Z"/></g>
<g><path style="opacity:1" fill="#242424" d="M 422.5,-0.5 C 428.5,-0.5 434.5,-0.5 440.5,-0.5C 440.5,56.5 440.5,113.5 440.5,170.5C 434.5,170.5 428.5,170.5 422.5,170.5C 422.5,113.5 422.5,56.5 422.5,-0.5 Z"/></g>
<g><path style="opacity:0" fill="#fefffe" d="M 440.5,-0.5 C 441.833,-0.5 443.167,-0.5 444.5,-0.5C 444.5,56.5 444.5,113.5 444.5,170.5C 443.167,170.5 441.833,170.5 440.5,170.5C 440.5,113.5 440.5,56.5 440.5,-0.5 Z"/></g>
<g><path style="opacity:1" fill="#242424" d="M 444.5,-0.5 C 447.5,-0.5 450.5,-0.5 453.5,-0.5C 453.5,56.5 453.5,113.5 453.5,170.5C 450.5,170.5 447.5,170.5 444.5,170.5C 444.5,113.5 444.5,56.5 444.5,-0.5 Z"/></g>
<g><path style="opacity:0" fill="#fefffe" d="M 453.5,-0.5 C 458.167,-0.5 462.833,-0.5 467.5,-0.5C 467.5,56.5 467.5,113.5 467.5,170.5C 462.833,170.5 458.167,170.5 453.5,170.5C 453.5,113.5 453.5,56.5 453.5,-0.5 Z"/></g>
<g><path style="opacity:1" fill="#242424" d="M 467.5,-0.5 C 471.833,-0.5 476.167,-0.5 480.5,-0.5C 480.5,56.5 480.5,113.5 480.5,170.5C 476.167,170.5 471.833,170.5 467.5,170.5C 467.5,113.5 467.5,56.5 467.5,-0.5 Z"/></g>
<g><path style="opacity:0" fill="#fefffe" d="M 480.5,-0.5 C 482.167,-0.5 483.833,-0.5 485.5,-0.5C 485.5,56.5 485.5,113.5 485.5,170.5C 483.833,170.5 482.167,170.5 480.5,170.5C 480.5,113.5 480.5,56.5 480.5,-0.5 Z"/></g>
<g><path style="opacity:1" fill="#242424" d="M 485.5,-0.5 C 486.833,-0.5 488.167,-0.5 489.5,-0.5C 489.5,56.5 489.5,113.5 489.5,170.5C 488.167,170.5 486.833,170.5 485.5,170.5C 485.5,113.5 485.5,56.5 485.5,-0.5 Z"/></g>
<g><path style="opacity:0" fill="#fefffe" d="M 489.5,-0.5 C 491.167,-0.5 492.833,-0.5 494.5,-0.5C 494.5,56.5 494.5,113.5 494.5,170.5C 492.833,170.5 491.167,170.5 489.5,170.5C 489.5,113.5 489.5,56.5 489.5,-0.5 Z"/></g>
<g><path style="opacity:1" fill="#242424" d="M 494.5,-0.5 C 497.5,-0.5 500.5,-0.5 503.5,-0.5C 503.5,56.5 503.5,113.5 503.5,170.5C 500.5,170.5 497.5,170.5 494.5,170.5C 494.5,113.5 494.5,56.5 494.5,-0.5 Z"/></g>
</svg>
