<svg xmlns="http://www.w3.org/2000/svg" width="48" height="48" fill="#000000"><path fill-rule="evenodd" d="m5.64 31.6-.586 2.144c-.218.685-.524 1.693-.689 2.59a5.629 5.629 0 0 0 4.638 7.588c.792.114 1.688.108 2.692-.04l4.613-.636a2.924 2.924 0 0 0 2.421-2.127l3.175-11.662L5.64 31.599Z" clip-rule="evenodd"/><path d="M10.14 32.152c-4.863.753-5.861 4.423-5.861 4.423l4.656-17.11 24.333-3.292-3.318 12.052a1.706 1.706 0 0 1-1.388 1.244l-.136.022-18.423 2.684.137-.023Z"/><path d="m12.899 21.235 26.938-3.98a1.597 1.597 0 0 0 1.323-1.17l2.78-10.06a1.595 1.595 0 0 0-1.74-2.012L16.498 7.81a7.185 7.185 0 0 0-5.777 5.193L7.013 26.438c.744-2.717 1.202-4.355 5.886-5.203Z"/><path d="M12.899 21.236c-3.901.706-4.87 1.962-5.514 3.932L4.279 36.577s.992-3.633 5.796-4.41l18.352-2.673.136-.022a1.707 1.707 0 0 0 1.388-1.244l2.73-9.915-19.782 2.923Z"/><path fill-rule="evenodd" d="M10.075 32.167c-4.06.657-5.392 3.345-5.71 4.164a5.629 5.629 0 0 0 4.638 7.59c.792.114 1.688.108 2.692-.039l4.613-.637a2.924 2.924 0 0 0 2.421-2.127l2.894-10.633-11.547 1.683-.001-.001Z" clip-rule="evenodd"/></svg>